<?xml version="1.0" standalone="no"?>
<!DOCTYPE svg PUBLIC "-//W3C//DTD SVG 20010904//EN"
 "http://www.w3.org/TR/2001/REC-SVG-20010904/DTD/svg10.dtd">
<svg version="1.0" xmlns="http://www.w3.org/2000/svg"
 width="2500.000000pt" height="2500.000000pt" viewBox="0 0 2500.000000 2500.000000"
 preserveAspectRatio="xMidYMid meet">

<g transform="translate(0.000000,2500.000000) scale(0.100000,-0.100000)"
fill="#000000" stroke="none">
<path d="M6647 19813 c-5 -8 -3282 -14064 -3345 -14343 -16 -74 -28 -138 -25
-142 6 -11 2661 -10 2667 1 3 5 64 260 136 567 72 308 137 583 146 612 19 66
72 127 139 158 l50 24 4658 0 c3923 0 4663 -2 4690 -14 18 -7 43 -25 56 -39
44 -48 40 -90 -49 -467 -136 -578 -191 -833 -182 -842 4 -4 620 -7 1368 -6
l1359 3 33 130 c108 426 3353 14346 3346 14356 -3 5 -577 9 -1358 9 -1071 0
-1356 -3 -1363 -12 -6 -7 -77 -299 -158 -648 -81 -349 -154 -651 -162 -670
-19 -47 -79 -108 -128 -131 -39 -18 -180 -19 -4716 -19 l-4676 0 -34 23 c-42
28 -59 60 -59 115 0 23 67 331 150 683 82 353 147 646 144 650 -6 11 -2681 12
-2687 2z m14101 -666 c33 -18 71 -82 72 -120 0 -24 -166 -737 -185 -798 -17
-49 -77 -115 -135 -145 -33 -18 -71 -19 -550 -22 -283 -2 -535 0 -559 3 -58 9
-106 55 -115 110 -5 31 13 124 83 426 50 212 95 397 100 412 13 34 77 105 112
123 16 8 45 18 66 23 21 5 272 9 558 8 482 -2 522 -3 553 -20z m-12377 -10
c43 -29 59 -60 59 -119 0 -53 -163 -765 -187 -816 -21 -45 -103 -116 -151
-130 -28 -9 -187 -12 -563 -12 -479 0 -527 2 -559 18 -44 22 -73 73 -73 126 0
22 40 210 88 416 92 395 106 437 168 484 74 57 58 55 643 56 l541 0 34 -23z
m9935 -1838 c28 -28 37 -47 41 -80 4 -35 -225 -1030 -1086 -4723 -601 -2573
-1098 -4693 -1105 -4710 -18 -43 -106 -120 -154 -134 -26 -8 -133 -12 -326
-12 -243 0 -286 2 -286 14 0 8 -7 68 -15 133 -201 1557 -1210 2746 -2645 3117
l-164 43 54 7 c167 22 465 113 679 207 936 414 1651 1265 1865 2222 49 215 59
316 60 567 0 179 -4 261 -17 347 -127 800 -626 1400 -1368 1647 -263 88 -511
122 -814 113 -285 -9 -509 -48 -777 -138 -1048 -348 -1881 -1240 -2133 -2284
-19 -77 -41 -187 -50 -245 -22 -144 -31 -459 -16 -601 85 -822 582 -1473 1331
-1744 52 -19 87 -34 78 -35 -45 -1 -336 -42 -433 -60 -1425 -273 -2725 -1284
-3419 -2659 -91 -180 -181 -386 -241 -548 l-37 -103 -345 0 c-302 0 -349 2
-380 17 -46 22 -73 67 -73 123 0 58 2175 9381 2200 9430 23 44 69 86 125 111
39 18 208 19 4727 16 l4688 -2 36 -36z m1885 -557 c35 -21 69 -80 69 -118 0
-22 -167 -739 -185 -795 -17 -49 -77 -115 -135 -145 -33 -18 -68 -19 -585 -19
-509 0 -553 1 -578 18 -43 28 -61 64 -61 121 1 63 168 775 194 826 34 67 98
113 185 133 11 3 254 4 540 4 l520 -2 36 -23z m-12391 -5 c46 -30 73 -80 73
-131 -1 -58 -168 -766 -192 -814 -24 -46 -70 -88 -126 -113 -37 -17 -79 -19
-573 -19 -563 0 -574 1 -614 46 -39 46 -40 87 -2 258 49 225 111 497 135 588
25 93 69 150 143 184 l51 24 536 0 536 0 33 -23z m-606 -2428 c22 -6 52 -23
67 -38 52 -52 50 -70 -45 -480 -48 -207 -92 -391 -98 -410 -15 -47 -84 -120
-138 -145 -43 -20 -62 -21 -535 -24 -269 -2 -515 0 -545 3 -45 6 -61 13 -92
45 -34 34 -38 43 -38 90 0 57 160 761 187 823 22 51 95 114 152 131 59 19
1022 23 1085 5z m12451 -31 c19 -20 37 -52 40 -70 5 -25 -18 -142 -85 -429
-97 -415 -110 -455 -173 -503 -75 -57 -62 -56 -637 -56 -574 0 -575 0 -617 54
-42 52 -39 72 58 488 50 216 99 409 109 428 24 47 65 84 120 109 44 20 59 21
598 18 l554 -2 33 -37z m-12986 -2436 c41 -22 71 -74 71 -123 0 -33 -156 -721
-181 -798 -15 -44 -72 -107 -123 -134 -40 -22 -49 -22 -571 -25 -358 -2 -542
0 -567 8 -20 6 -48 24 -61 40 -47 55 -45 74 52 492 50 213 99 404 110 425 25
50 66 87 121 112 43 20 63 21 580 21 500 0 538 -1 569 -18z m12376 4 c45 -19
75 -69 75 -124 0 -49 -162 -760 -184 -808 -23 -50 -72 -100 -124 -125 l-47
-24 -540 0 c-498 0 -543 1 -572 18 -41 22 -63 55 -70 104 -3 26 22 151 81 408
48 204 92 385 98 404 15 49 75 111 133 137 l50 24 533 0 c441 0 539 -2 567
-14z m-12936 -2444 c40 -22 71 -73 71 -119 0 -52 -179 -804 -200 -838 -28 -45
-70 -81 -120 -104 -43 -20 -63 -21 -585 -21 -518 0 -541 1 -572 20 -39 24 -62
57 -69 101 -6 41 167 793 196 848 24 48 65 85 120 110 43 20 63 21 585 21 504
0 543 -1 574 -18z m12378 -2 c41 -25 63 -68 63 -122 0 -51 -162 -755 -187
-811 -23 -52 -102 -123 -151 -137 -28 -7 -213 -10 -581 -8 l-541 3 -36 36
c-59 59 -58 72 46 513 50 214 97 401 105 415 19 37 74 87 120 110 38 19 62 20
585 21 523 0 546 -1 577 -20z m-12922 -2442 c57 -61 56 -68 -39 -480 -48 -205
-92 -388 -98 -407 -14 -44 -81 -116 -133 -144 -40 -22 -45 -22 -585 -22 -509
0 -548 1 -573 18 -39 25 -67 75 -67 118 0 33 141 656 176 777 18 64 80 136
139 163 38 18 74 19 593 16 l554 -2 33 -37z m12352 22 c40 -24 63 -67 63 -117
0 -48 -173 -791 -193 -830 -22 -41 -76 -89 -127 -112 -43 -20 -64 -21 -573
-21 -582 0 -579 0 -617 62 -12 20 -20 51 -20 79 0 41 136 650 175 784 19 66
63 117 127 149 l52 26 540 0 c519 0 542 -1 573 -20z"/>
<path d="M20691 7129 c-40 -5 -118 -24 -172 -43 -307 -104 -536 -364 -595
-673 -19 -98 -18 -265 2 -361 69 -340 335 -613 681 -699 106 -26 323 -24 432
6 171 46 312 130 434 261 161 172 239 374 239 620 0 453 -334 833 -782 889
-95 12 -132 12 -239 0z m327 -222 c100 -35 172 -80 249 -157 152 -152 224
-366 201 -603 -27 -283 -212 -515 -473 -593 -81 -24 -255 -25 -345 -1 -117 32
-207 84 -296 172 -68 67 -89 96 -127 175 -56 116 -77 209 -77 335 0 332 199
603 504 686 102 28 263 22 364 -14z"/>
<path d="M20570 6688 c-47 -5 -91 -14 -97 -20 -10 -8 -13 -105 -11 -452 l3
-441 108 -3 107 -3 0 176 0 175 63 0 c77 0 133 -15 161 -44 15 -14 32 -58 50
-130 15 -60 33 -124 41 -143 l14 -34 113 3 c95 3 112 5 109 18 -3 8 -20 74
-38 145 -40 156 -66 210 -119 250 l-40 30 50 30 c27 17 63 47 80 68 26 33 31
48 34 108 7 120 -50 204 -172 252 -42 17 -78 21 -211 23 -88 1 -198 -2 -245
-8z m311 -168 c50 -14 80 -50 86 -104 5 -41 3 -48 -28 -79 -38 -38 -102 -57
-194 -57 l-55 0 0 118 c0 65 3 122 7 125 10 11 144 8 184 -3z"/>
</g>
</svg>
